<svg xmlns="http://www.w3.org/2000/svg" width="48" height="48" fill="none"><g clip-path="url(#a)" filter="url(#b)"><rect width="40" height="40" fill="url(#c)" rx="20"/><g clip-path="url(#d)"><path fill="#fff" d="M10.833 19.167a8.333 8.333 0 0 0 8.334-8.334h1.666a8.333 8.333 0 0 0 8.334 8.334v1.666a8.333 8.333 0 0 0-8.334 8.334h-1.666a8.333 8.333 0 0 0-8.334-8.334v-1.666zm4.003.833A10.037 10.037 0 0 1 20 25.164 10.036 10.036 0 0 1 25.164 20 10.036 10.036 0 0 1 20 14.836 10.037 10.037 0 0 1 14.836 20z"/></g></g><defs><clipPath id="a"><path fill="#fff" d="M0 0h48v48H0z"/></clipPath><clipPath id="d"><path fill="#fff" d="M10 10h20v20H10z"/></clipPath><linearGradient id="c" x1="20" x2="20" y1="0" y2="40" gradientUnits="userSpaceOnUse"><stop stop-color="#4F75FF"/><stop offset="1" stop-color="#81CAFF"/></linearGradient><filter id="b" width="48" height="51" x="-4" y="-3" color-interpolation-filters="sRGB" filterUnits="userSpaceOnUse"><feFlood flood-opacity="0" result="BackgroundImageFix"/><feColorMatrix in="SourceAlpha" result="hardAlpha" values="0 0 0 0 0 0 0 0 0 0 0 0 0 0 0 0 0 0 127 0"/><feOffset dy="4"/><feGaussianBlur stdDeviation="2"/><feComposite in2="hardAlpha" operator="out"/><feColorMatrix values="0 0 0 0 0.908333 0 0 0 0 0.908333 0 0 0 0 0.908333 0 0 0 1 0"/><feBlend in2="BackgroundImageFix" result="effect1_dropShadow_296_3382"/><feBlend in="SourceGraphic" in2="effect1_dropShadow_296_3382" result="shape"/><feColorMatrix in="SourceAlpha" result="hardAlpha" values="0 0 0 0 0 0 0 0 0 0 0 0 0 0 0 0 0 0 127 0"/><feOffset dx="2" dy="-3"/><feGaussianBlur stdDeviation="2"/><feComposite in2="hardAlpha" k2="-1" k3="1" operator="arithmetic"/><feColorMatrix values="0 0 0 0 1 0 0 0 0 1 0 0 0 0 1 0 0 0 0.3 0"/><feBlend in2="shape" result="effect2_innerShadow_296_3382"/></filter></defs></svg>